<svg width="72" height="24" viewBox="0 0 72 24" fill="none" xmlns="http://www.w3.org/2000/svg">
<path d="M71.1683 19.0106H67.3819L65.3165 15.9999L63.1651 19.0106H59.4647L63.3372 13.8493L59.8089 9.11816H63.5954L65.4026 11.7848L67.2098 9.11816H70.8241L67.2958 13.8493L71.1683 19.0106Z" fill="#5A3E95"/>
<path d="M58.2599 19.0106H55.0759V9.11816H58.2599V19.0106Z" fill="#5A3E95"/>
<path d="M58.5181 5.8495C58.5181 6.36563 58.346 6.79574 57.9157 7.13983C57.5715 7.56993 57.1412 7.74198 56.6249 7.74198C56.1085 7.74198 55.6782 7.56993 55.334 7.13983C54.9898 6.79574 54.8177 6.36563 54.8177 5.8495C54.8177 5.33338 54.9898 4.90327 55.334 4.55918C55.6782 4.2151 56.1085 3.95703 56.6249 3.95703C57.1412 3.95703 57.5715 4.12907 57.9157 4.55918C58.346 4.90327 58.5181 5.33338 58.5181 5.8495Z" fill="#F79233"/>
<path d="M47.675 14.1937C47.675 14.5378 47.5889 14.7958 47.5889 14.9679H40.6184C40.6184 15.484 40.8766 15.9141 41.3068 16.3442C41.8232 16.6883 42.3395 16.8603 42.9419 16.8603C43.8025 16.8603 44.577 16.5163 45.0073 15.8281L47.2447 17.2044C46.2981 18.6668 44.8351 19.355 42.8559 19.355C41.3068 19.355 40.1021 18.8388 39.0694 17.9786C38.0367 17.0324 37.5204 15.7421 37.5204 14.1077C37.5204 12.5593 38.0367 11.269 38.9833 10.3227C40.016 9.29046 41.2208 8.86035 42.7698 8.86035C44.2328 8.86035 45.4375 9.29046 46.2981 10.2367C47.1587 11.269 47.675 12.5593 47.675 14.1937ZM40.6184 12.9894H44.663C44.663 12.3872 44.4909 11.9571 44.2328 11.613C43.8885 11.269 43.3722 11.0969 42.7698 11.0969C42.1674 11.0969 41.6511 11.269 41.3068 11.613C40.8766 11.9571 40.6184 12.4733 40.6184 12.9894Z" fill="#5A3E95"/>
<path d="M36.918 7.91399H31.1523V10.7527H35.9714V13.5914H31.1523V19.0108H27.8821V4.98926H36.918V7.91399Z" fill="#5A3E95"/>
<path d="M53.785 21.4191V23.9137H53.4408V21.4191H53.785ZM55.248 21.7632V23.9137H54.9037V21.7632H54.1292V21.4191H56.0225V21.7632H55.248ZM58.5181 21.6772L58.2599 21.8492C58.2599 21.8492 58.1739 21.7632 58.0878 21.7632C58.0018 21.6772 57.9157 21.6772 57.8297 21.6772C57.6575 21.6772 57.5715 21.6772 57.4854 21.7632C57.3994 21.8492 57.3133 21.9352 57.3133 22.0213C57.3133 22.1073 57.3994 22.1933 57.3994 22.1933C57.3994 22.2793 57.4854 22.2793 57.4854 22.3654C57.5715 22.3654 57.5715 22.3654 57.6575 22.4514C57.6575 22.4514 57.7436 22.4514 57.8297 22.4514C57.9157 22.5374 58.0018 22.5374 58.0878 22.5374C58.0878 22.5374 58.1739 22.6234 58.2599 22.6234C58.346 22.7094 58.346 22.7094 58.432 22.7955C58.432 22.7955 58.5181 22.8815 58.5181 22.9675C58.5181 23.0535 58.5181 23.1395 58.5181 23.2256C58.5181 23.4836 58.432 23.6557 58.346 23.7417C58.1739 23.9137 57.9157 23.9998 57.7436 23.9998C57.5715 23.9998 57.3994 23.9137 57.2273 23.8277C57.1412 23.8277 56.9691 23.7417 56.883 23.5697L57.1412 23.3976C57.2273 23.4836 57.3133 23.5697 57.3994 23.5697C57.4854 23.6557 57.5715 23.6557 57.7436 23.6557C57.8297 23.6557 58.0018 23.6557 58.0878 23.5697C58.1739 23.4836 58.1739 23.3976 58.1739 23.2256C58.1739 23.2256 58.1739 23.1395 58.1739 23.0535L58.0878 22.9675L58.0018 22.8815C57.9157 22.8815 57.8297 22.8815 57.8297 22.7955C57.7436 22.7955 57.7436 22.7955 57.6575 22.7955C57.5715 22.7094 57.4854 22.7094 57.3994 22.7094C57.3133 22.6234 57.3133 22.6234 57.2273 22.5374C57.1412 22.5374 57.0551 22.4514 57.0551 22.3654C57.0551 22.2793 56.9691 22.1933 56.9691 22.1073C56.9691 21.9352 57.0551 21.7632 57.1412 21.6772C57.2273 21.5912 57.3133 21.5051 57.3994 21.4191C57.5715 21.4191 57.6575 21.3331 57.8297 21.3331C58.0018 21.3331 58.0878 21.4191 58.2599 21.4191C58.346 21.5051 58.432 21.5912 58.5181 21.6772ZM60.4113 22.4514C60.5834 22.6234 60.6695 22.7955 60.6695 23.0535C60.6695 23.3116 60.5834 23.5697 60.4113 23.6557C60.2392 23.8277 60.0671 23.9137 59.8089 23.9137C59.5508 23.9137 59.2926 23.8277 59.1205 23.6557C59.0344 23.5697 58.9484 23.3116 58.9484 23.0535C58.9484 22.7955 58.9484 22.6234 59.1205 22.4514C59.2926 22.2793 59.5508 22.1933 59.8089 22.1933C60.0671 22.1933 60.2392 22.2793 60.4113 22.4514ZM60.1532 23.4836C60.2392 23.3976 60.3253 23.2256 60.3253 23.0535C60.3253 22.8815 60.2392 22.7955 60.1532 22.6234C60.0671 22.5374 59.9811 22.4514 59.8089 22.4514C59.6368 22.4514 59.4647 22.5374 59.3787 22.6234C59.2926 22.7955 59.2065 22.8815 59.2065 23.0535C59.2065 23.2256 59.2926 23.3976 59.3787 23.4836C59.4647 23.5697 59.6368 23.6557 59.8089 23.6557C59.9811 23.6557 60.0671 23.5697 60.1532 23.4836ZM61.444 21.2471V23.9137H61.0998V21.2471H61.444ZM63.4233 23.9137H63.1651C63.0791 23.8277 63.0791 23.6557 63.0791 23.6557C63.0791 23.7417 62.993 23.8277 62.907 23.8277C62.8209 23.9137 62.6488 23.9137 62.5627 23.9137C62.3906 23.9137 62.2185 23.9137 62.1325 23.7417C62.0464 23.6557 61.9603 23.4836 61.9603 23.3116V22.2793H62.3046V23.1395C62.3046 23.4836 62.3906 23.6557 62.6488 23.6557C62.8209 23.6557 62.907 23.6557 62.993 23.4836C63.0791 23.3976 63.0791 23.3116 63.0791 23.1395V22.2793H63.4233V23.5697C63.4233 23.6557 63.4233 23.8277 63.4233 23.9137ZM64.8002 22.2793V22.5374H64.3699V23.3976C64.3699 23.4836 64.3699 23.5697 64.3699 23.5697C64.456 23.6557 64.456 23.6557 64.542 23.6557C64.6281 23.6557 64.7141 23.6557 64.7141 23.6557L64.8002 23.9137C64.7141 23.9137 64.6281 23.9137 64.456 23.9137C64.3699 23.9137 64.1978 23.9137 64.1117 23.8277C64.0257 23.7417 64.0257 23.5697 64.0257 23.3976V22.5374H63.6815V22.2793H64.0257V21.7632H64.3699V22.2793H64.8002ZM65.4026 22.2793V23.9137H65.0584V22.2793H65.4026ZM65.4886 21.6772C65.4886 21.6772 65.4886 21.7632 65.4026 21.7632C65.4026 21.8492 65.3165 21.8492 65.2305 21.8492C65.2305 21.8492 65.1444 21.8492 65.1444 21.7632C65.0584 21.7632 65.0584 21.6772 65.0584 21.6772C65.0584 21.5912 65.0584 21.5051 65.1444 21.5051L65.2305 21.4191C65.3165 21.4191 65.4026 21.5051 65.4026 21.5051C65.4886 21.5051 65.4886 21.5912 65.4886 21.6772ZM67.3819 22.4514C67.554 22.6234 67.64 22.7955 67.64 23.0535C67.64 23.3116 67.554 23.5697 67.3819 23.6557C67.2098 23.8277 67.0376 23.9137 66.7795 23.9137C66.5213 23.9137 66.2631 23.8277 66.091 23.6557C65.9189 23.5697 65.9189 23.3116 65.9189 23.0535C65.9189 22.7955 65.9189 22.6234 66.091 22.4514C66.2631 22.2793 66.5213 22.1933 66.7795 22.1933C67.0376 22.1933 67.2098 22.2793 67.3819 22.4514ZM67.1237 23.4836C67.2098 23.3976 67.2958 23.2256 67.2958 23.0535C67.2958 22.8815 67.2098 22.7955 67.1237 22.6234C67.0376 22.5374 66.9516 22.4514 66.7795 22.4514C66.6074 22.4514 66.4353 22.5374 66.3492 22.6234C66.2631 22.7955 66.1771 22.8815 66.1771 23.0535C66.1771 23.2256 66.2631 23.3976 66.3492 23.4836C66.4353 23.5697 66.6074 23.6557 66.7795 23.6557C66.9516 23.6557 67.0376 23.5697 67.1237 23.4836ZM68.0703 22.2793H68.3285C68.3285 22.3654 68.3285 22.4514 68.3285 22.5374H68.4145C68.4145 22.4514 68.5006 22.3654 68.5867 22.2793C68.6727 22.1933 68.7588 22.1933 68.9309 22.1933C69.103 22.1933 69.2751 22.2793 69.3612 22.3654C69.4472 22.5374 69.5333 22.7094 69.5333 22.8815V23.9137H69.189V22.9675C69.189 22.6234 69.103 22.4514 68.8448 22.4514C68.6727 22.4514 68.5867 22.5374 68.5006 22.6234C68.4145 22.7094 68.4145 22.8815 68.4145 23.0535V23.9137H68.0703V22.6234C68.0703 22.4514 68.0703 22.3654 68.0703 22.2793ZM71.1683 22.4514L70.9102 22.7094C70.9102 22.6234 70.8241 22.5374 70.7381 22.5374C70.7381 22.4514 70.652 22.4514 70.5659 22.4514C70.4799 22.4514 70.3938 22.4514 70.3078 22.5374C70.3078 22.5374 70.2217 22.6234 70.2217 22.7094L70.3078 22.7955C70.3938 22.8815 70.4799 22.8815 70.652 22.9675C70.9962 22.9675 71.1683 23.1395 71.1683 23.3976C71.1683 23.5697 71.0823 23.7417 70.9962 23.8277C70.8241 23.9137 70.7381 23.9137 70.4799 23.9137C70.3938 23.9137 70.3078 23.9137 70.1357 23.8277C70.0496 23.8277 69.9636 23.7417 69.8775 23.6557L70.1357 23.4836C70.1357 23.4836 70.2217 23.5697 70.3078 23.6557C70.3938 23.6557 70.4799 23.6557 70.5659 23.6557C70.652 23.6557 70.652 23.6557 70.7381 23.6557C70.8241 23.5697 70.8241 23.4836 70.8241 23.3976C70.8241 23.3976 70.8241 23.3116 70.7381 23.3116C70.652 23.2256 70.5659 23.2256 70.3938 23.1395C70.3938 23.1395 70.3078 23.1395 70.2217 23.1395C70.2217 23.0535 70.1357 23.0535 70.1357 23.0535C70.0496 22.9675 70.0496 22.9675 69.9636 22.8815C69.9636 22.8815 69.9636 22.7955 69.9636 22.7094C69.9636 22.5374 70.0496 22.4514 70.1357 22.3654C70.2217 22.2793 70.3938 22.1933 70.5659 22.1933C70.652 22.1933 70.8241 22.1933 70.9102 22.2793C70.9962 22.3654 71.0823 22.3654 71.1683 22.4514Z" fill="#F79233"/>
<path d="M12.9084 1.54839C13.2886 1.54839 13.5969 1.20177 13.5969 0.774193C13.5969 0.346618 13.2886 0 12.9084 0C12.5282 0 12.22 0.346618 12.22 0.774193C12.22 1.20177 12.5282 1.54839 12.9084 1.54839Z" fill="#F79233"/>
<path d="M9.8104 6.10747C10.1906 6.10747 10.4988 5.76085 10.4988 5.33328C10.4988 4.9057 10.1906 4.55908 9.8104 4.55908C9.43018 4.55908 9.12195 4.9057 9.12195 5.33328C9.12195 5.76085 9.43018 6.10747 9.8104 6.10747Z" fill="#F79233"/>
<path d="M18.3299 10.4947C18.7101 10.4947 19.0184 10.1481 19.0184 9.72048C19.0184 9.29291 18.7101 8.94629 18.3299 8.94629C17.9497 8.94629 17.6415 9.29291 17.6415 9.72048C17.6415 10.1481 17.9497 10.4947 18.3299 10.4947Z" fill="#F79233"/>
<path fill-rule="evenodd" clip-rule="evenodd" d="M8.08926 1.1182C3.78646 6.02142 7.57293 11.9569 13.0805 10.3225C12.8223 9.37626 12.8223 8.60207 12.9945 7.56981C14.1992 10.4085 17.2973 8.68809 17.0391 12.9892C15.9204 10.6666 12.6502 11.7849 10.9291 13.5913C9.89644 14.6236 9.3801 16.0859 9.3801 17.2042C9.55222 20.5591 12.9945 21.4193 14.6295 21.3333C16.4367 21.1612 17.5554 20.387 18.502 19.4408C19.6208 18.2365 20.3092 16.6021 20.3092 14.7956C20.3092 13.9354 20.1371 13.1612 19.8789 12.387C19.6208 11.6988 19.1905 11.0107 18.6742 10.4085C18.5881 10.4945 18.502 10.4945 18.3299 10.4945C17.8996 10.4945 17.6415 10.1505 17.6415 9.72035C17.6415 9.37626 17.8996 9.03217 18.3299 9.03217C18.7602 9.03217 19.0184 9.37626 19.0184 9.72035C19.0184 9.89239 19.0184 9.97841 18.9323 10.1505C19.5347 10.7526 19.965 11.4408 20.2232 12.301C20.4813 13.0752 20.6534 13.9354 20.6534 14.7956C20.6534 16.6881 19.965 18.4945 18.7602 19.6988C17.5554 20.9892 15.9204 21.8494 13.9411 21.8494C11.7036 21.8494 8.17532 20.473 6.71237 15.8279C7.74504 21.3333 12.8223 23.5698 16.4367 22.1074C18.1578 21.4193 19.5347 20.215 20.5674 18.6666C21.7722 16.9462 22.5467 14.7956 22.6327 12.5591C22.5467 10.2365 21.514 8.25798 20.051 6.79561C18.502 5.33325 16.4367 4.38701 14.1992 4.38701C13.5108 4.38701 12.9084 4.47303 12.306 4.64508C11.7036 4.7311 11.1012 4.98916 10.4988 5.24723V5.33325C10.4988 5.76336 10.2407 6.10744 9.81038 6.10744C9.3801 6.10744 9.12193 5.76336 9.12193 5.33325C9.12193 4.90314 9.3801 4.55906 9.81038 4.55906C10.0686 4.55906 10.2407 4.7311 10.3267 4.90314C10.9291 4.55906 11.5315 4.38701 12.22 4.21497C12.8223 4.04293 13.5108 3.95691 14.1992 3.95691C16.5228 3.95691 18.6742 4.90314 20.3092 6.45153C21.1698 7.31174 21.8582 8.344 22.3746 9.46228C21.9443 7.74185 21.1698 6.10744 20.051 4.81712C18.416 2.83863 16.1785 1.46228 13.5968 1.1182C13.4247 1.37626 13.1666 1.5483 12.9084 1.5483C12.4781 1.5483 12.22 1.20422 12.22 0.77411C12.22 0.430024 12.4781 0.0859375 12.9084 0.0859375C13.2526 0.0859375 13.5968 0.344002 13.5968 0.688088C16.3506 1.1182 18.6742 2.58056 20.3092 4.55906C22.0303 6.62357 23.063 9.20422 23.063 12.1289C23.063 12.301 23.063 12.387 22.9769 12.5591C22.8909 14.8816 22.2024 17.1182 20.9116 18.9246C19.8789 20.387 18.5881 21.6773 17.0391 22.5375C12.9084 24.8601 7.57293 23.9139 6.19603 22.5375C6.4542 22.4515 6.79842 22.3655 7.05659 22.1074C4.73308 22.3655 3.27013 20.5591 2.23746 19.1827C3.18407 19.6128 4.56097 19.6128 5.0773 19.3548C3.95858 19.4408 3.09802 19.0967 2.49562 18.6666C1.3769 17.9784 0.172112 15.6558 0 12.9031C0.774504 14.4515 2.06534 15.3978 3.44224 15.8279C-1.03267 13.3332 0.43028 8.25798 1.54901 6.45153C1.54901 8.344 1.97929 10.1505 3.87252 11.6128C0.946616 8.77411 2.1514 2.92465 8.08926 1.1182ZM18.5881 9.5483C18.502 9.46228 18.416 9.37626 18.3299 9.37626C18.2439 9.37626 18.1578 9.46228 18.0718 9.5483C18.0718 9.5483 17.9857 9.63433 17.9857 9.72035C17.9857 9.89239 18.0718 9.97841 18.0718 9.97841C18.1578 10.0644 18.2439 10.0644 18.3299 10.0644C18.416 10.0644 18.502 10.0644 18.5881 9.97841C18.6742 9.97841 18.6742 9.89239 18.6742 9.72035C18.6742 9.63433 18.6742 9.5483 18.5881 9.5483ZM10.0686 5.07518C9.9825 4.98916 9.89644 4.98916 9.81038 4.98916C9.72433 4.98916 9.63827 4.98916 9.55222 5.07518C9.46616 5.16121 9.46616 5.24723 9.46616 5.33325C9.46616 5.41927 9.46616 5.50529 9.55222 5.59131C9.63827 5.67734 9.72433 5.67734 9.81038 5.67734C9.89644 5.67734 9.9825 5.67734 10.0686 5.59131C10.0686 5.50529 10.1546 5.41927 10.1546 5.33325C10.1546 5.24723 10.0686 5.16121 10.0686 5.07518ZM13.1666 0.602067C13.0805 0.516045 12.9945 0.430024 12.9084 0.430024C12.8223 0.430024 12.7363 0.516045 12.6502 0.602067C12.5642 0.602067 12.5642 0.688088 12.5642 0.77411C12.5642 0.860131 12.5642 0.946153 12.6502 1.03217C12.7363 1.1182 12.8223 1.1182 12.9084 1.1182C12.9945 1.1182 13.0805 1.1182 13.1666 1.03217C13.1666 0.946153 13.2526 0.860131 13.2526 0.77411C13.2526 0.688088 13.1666 0.602067 13.1666 0.602067Z" fill="url(#paint0_linear_43_1768)"/>
<path fill-rule="evenodd" clip-rule="evenodd" d="M8.08927 1.11816C3.78647 6.02139 7.57293 11.9569 13.0805 10.3225C12.8223 9.37623 12.8223 8.60203 12.9945 7.56977C14.1992 10.4085 17.2973 8.68805 17.0391 12.9891C15.9204 10.6665 12.6502 11.7848 10.9291 13.5913C10.8431 13.6773 10.8431 13.6773 10.8431 13.6773C5.6797 12.9891 2.23746 5.33322 8.08927 1.11816Z" fill="url(#paint1_linear_43_1768)"/>
<path d="M12.9084 1.54839C13.3362 1.54839 13.6829 1.20177 13.6829 0.774193C13.6829 0.346618 13.3362 0 12.9084 0C12.4807 0 12.1339 0.346618 12.1339 0.774193C12.1339 1.20177 12.4807 1.54839 12.9084 1.54839Z" fill="#5A3E95"/>
<path d="M9.81039 6.10747C10.2381 6.10747 10.5849 5.76085 10.5849 5.33328C10.5849 4.9057 10.2381 4.55908 9.81039 4.55908C9.38264 4.55908 9.03589 4.9057 9.03589 5.33328C9.03589 5.76085 9.38264 6.10747 9.81039 6.10747Z" fill="#5A3E95"/>
<path d="M18.3299 10.4947C18.7577 10.4947 19.1044 10.1481 19.1044 9.72048C19.1044 9.29291 18.7577 8.94629 18.3299 8.94629C17.9022 8.94629 17.5554 9.29291 17.5554 9.72048C17.5554 10.1481 17.9022 10.4947 18.3299 10.4947Z" fill="#5A3E95"/>
<path fill-rule="evenodd" clip-rule="evenodd" d="M14.4574 9.97851C14.8877 10.2366 14.9737 10.8387 15.6622 10.7527C15.7482 10.2366 14.8877 9.89248 14.4574 9.97851Z" fill="#5A3E95"/>
<path fill-rule="evenodd" clip-rule="evenodd" d="M3.44227 13.7635C1.37692 12.0431 0.774532 8.77424 1.54904 6.45166C1.72115 9.89252 2.92593 10.7527 3.87255 11.699L3.44227 13.7635Z" fill="#FFCC29"/>
<path fill-rule="evenodd" clip-rule="evenodd" d="M3.70041 18.2367C1.80718 17.1184 0.602392 15.2259 0 12.9033C0.946616 14.7958 2.66774 15.57 3.44224 15.8281L3.70041 18.2367Z" fill="#FFCC29"/>
<path fill-rule="evenodd" clip-rule="evenodd" d="M5.50762 20.817C4.81917 20.645 3.44227 20.4729 2.23749 19.1826C3.52833 19.6987 4.81917 19.5267 5.07734 19.3547L5.50762 20.817Z" fill="#FFCC29"/>
<path d="M52.7523 19.0108H49.4822V3.95703H52.7523V19.0108Z" fill="#5A3E95"/>
<defs>
<linearGradient id="paint0_linear_43_1768" x1="13.545" y1="23.7049" x2="9.50038" y2="0.325221" gradientUnits="userSpaceOnUse">
<stop stop-color="#F05239"/>
<stop offset="0.760784" stop-color="#FCB62E"/>
<stop offset="1" stop-color="#FCB62E"/>
</linearGradient>
<linearGradient id="paint1_linear_43_1768" x1="14.1208" y1="12.8609" x2="7.94002" y2="1.94933" gradientUnits="userSpaceOnUse">
<stop stop-color="#F05239"/>
<stop offset="0.678431" stop-color="#FCB62E"/>
<stop offset="1" stop-color="#FFF212"/>
</linearGradient>
</defs>
</svg>
