<svg width="48" height="48" viewBox="0 0 48 48" fill="none" xmlns="http://www.w3.org/2000/svg">
<path d="M21.1665 36.6207C23.01 35.0345 25.2632 34.7586 27.5847 34.4138C28.1309 34.3448 28.6772 34.2758 29.2234 34.1379C33.1836 33.5172 36.1878 32.0689 38.3045 29.7241C40.148 27.6552 41.377 24.2758 41.2405 21.5172C41.1722 19.931 40.6942 18.5517 39.8749 17.5172L45.8151 9.72412L44.8592 9.10343C44.5178 8.89653 44.2447 8.68964 43.9033 8.48274C42.2646 7.31033 40.5577 6.20688 38.3728 5.99998C37.5534 5.93102 36.7341 5.99998 35.983 6.20688C32.1594 7.1724 29.9745 10.4827 29.2234 11.8621L30.9304 12.9655C31.6131 11.7931 33.3884 9.03447 36.4609 8.27584C37.0755 8.13791 37.69 8.06895 38.3045 8.13791C39.9432 8.27584 41.377 9.24136 42.8792 10.2758L37.8265 16.9655L37.212 17.7931L37.9631 18.4827C38.7824 19.2414 39.2604 20.2758 39.3287 21.6552C39.4652 24.1379 38.2362 26.8965 36.9389 28.2758C35.0954 30.2758 32.5008 31.4483 28.9503 32.0689C28.404 32.1379 27.8578 32.2069 27.3799 32.2758C26.0143 32.4827 24.5804 32.6207 23.2831 33.1034C22.1224 33.4483 21.0299 34.0689 19.9375 34.9655C17.8891 36.7586 16.387 39.3793 15.8407 42.1379C13.6558 42.1379 11.4709 42.1379 9.35426 42.1379H8.33008C8.80803 40.6896 9.49082 39.3103 10.2419 38.0689C11.4709 36.1379 13.0413 34.4827 14.8166 33.1034H11.6075C10.4467 34.2069 9.42254 35.4483 8.53492 36.8965C7.37418 38.7586 6.48655 40.7586 5.94032 42.9655L5.59893 44.3448H9.28598C11.6757 44.3448 14.1338 44.3448 16.5918 44.3448H17.4794L17.616 43.4483C17.9574 40.7586 19.2547 38.3448 21.1665 36.6207Z" fill="white"/>
<path d="M35.1636 24.8276C35.7781 22.6897 34.8222 20.3448 32.9104 19.1034C30.9986 17.8621 29.0868 16.4828 27.3798 15.1724L7.71549 0L7.44237 2.48276L26.1508 16.8966C27.926 18.2759 29.8378 19.6552 31.8179 20.9655C32.9104 21.6552 33.5249 23.0345 33.1835 24.2069C32.9104 25.2414 31.8179 26.069 30.5889 26.069L3.96015 27.2414L4.84777 29.3103L30.6572 28.2069C32.7738 28.1379 34.6173 26.7586 35.1636 24.8276Z" fill="white"/>
<path d="M1.91181 23.7241L27.926 23.5861C28.4723 23.5861 28.8819 23.1034 28.8819 22.5517C28.8819 22.1379 28.6771 21.793 28.3357 21.5861L3.96017 4.89648V7.44821L21.8492 19.4482L0 12.5517L0.204838 14.8275L21.3713 21.5172L1.16074 21.5861C1.09246 21.5861 1.91181 23.7241 1.91181 23.7241Z" fill="white"/>
<path d="M38.441 11.1724C38.441 10.5517 37.9631 10 37.3486 10C36.7341 10 36.3244 10.4828 36.3244 11.1724C36.3244 11.7931 36.8024 12.2759 37.3486 12.2759C37.9631 12.3448 38.441 11.7931 38.441 11.1724Z" fill="white"/>
<path d="M25.6729 2.13793C28.5406 2.13793 31.34 2.82759 33.8664 4C34.3443 3.7931 34.8223 3.65517 35.3685 3.51724C35.8465 3.37931 36.3927 3.31035 36.9389 3.24138C33.6615 1.17241 29.8379 0 25.7412 0C22.1224 0 18.6402 0.965518 15.6359 2.62069L17.4795 4.06897C19.9375 2.75862 22.7369 2.13793 25.6729 2.13793Z" fill="white"/>
<path d="M46.0199 14.0688L44.5861 15.9309C45.542 18.4137 46.0199 21.1033 46.0199 23.9999C46.0199 36.0688 36.8706 45.8619 25.6728 45.8619C23.761 45.8619 21.8492 45.5861 20.1423 45.0344L19.8691 47.1723C21.7127 47.724 23.6928 47.9999 25.6728 47.9999C37.963 47.9999 48 37.2413 48 23.9999C48 20.4826 47.2489 17.1033 46.0199 14.0688Z" fill="white"/>
</svg>
