<svg width="36" height="36" viewBox="0 0 36 36" fill="none" xmlns="http://www.w3.org/2000/svg">
<path d="M15.8749 27.4656C17.2575 26.2759 18.9474 26.069 20.6885 25.8104C21.0982 25.7587 21.5079 25.7069 21.9175 25.6035C24.8877 25.138 27.1409 24.0518 28.7284 22.2932C30.111 20.7414 31.0328 18.207 30.9303 16.138C30.8791 14.9483 30.5207 13.9138 29.9062 13.138L34.3614 7.29316L33.6444 6.82764C33.3884 6.67247 33.1835 6.5173 32.9275 6.36212C31.6985 5.48281 30.4183 4.65523 28.7796 4.50006C28.1651 4.44833 27.5505 4.50006 26.9872 4.65523C24.1195 5.37937 22.4808 7.86212 21.9175 8.89661L23.1978 9.72419C23.7099 8.84488 25.0413 6.77592 27.3457 6.20695C27.8066 6.1035 28.2675 6.05178 28.7284 6.1035C29.9574 6.20695 31.0328 6.93109 32.1594 7.70695L28.3699 12.7242L27.909 13.3449L28.4723 13.8621C29.0868 14.4311 29.4453 15.207 29.4965 16.2414C29.5989 18.1035 28.6771 20.1725 27.7042 21.2069C26.3215 22.7069 24.3756 23.5863 21.7127 24.0518C21.303 24.1035 20.8934 24.1552 20.5349 24.2069C19.5107 24.3621 18.4353 24.4656 17.4623 24.8276C16.5918 25.0863 15.7725 25.5518 14.9531 26.2242C13.4168 27.569 12.2902 29.5345 11.8806 31.6035C10.2419 31.6035 8.60318 31.6035 7.0157 31.6035H6.24756C6.60602 30.5173 7.11811 29.4828 7.68141 28.5518C8.60318 27.1035 9.78099 25.8621 11.1124 24.8276H8.70559C7.83504 25.6552 7.0669 26.5863 6.40118 27.6725C5.53063 29.069 4.86491 30.569 4.45524 32.2242L4.1992 33.2587H6.96448C8.7568 33.2587 10.6003 33.2587 12.4439 33.2587H13.1096L13.212 32.5863C13.468 30.569 14.441 28.7587 15.8749 27.4656Z" fill="#1F1F1F"/>
<path d="M26.3727 18.6207C26.8336 17.0172 26.1166 15.2586 24.6828 14.3276C23.2489 13.3966 21.8151 12.3621 20.5348 11.3793L5.78662 0L5.58178 1.86207L19.6131 12.6724C20.9445 13.7069 22.3784 14.7414 23.8634 15.7241C24.6828 16.2414 25.1437 17.2759 24.8876 18.1552C24.6828 18.931 23.8634 19.5517 22.9417 19.5517L2.97012 20.431L3.63583 21.9828L22.9929 21.1552C24.5804 21.1034 25.963 20.069 26.3727 18.6207Z" fill="#1F1F1F"/>
<path d="M1.43386 17.7931L20.9445 17.6896C21.3542 17.6896 21.6615 17.3276 21.6615 16.9138C21.6615 16.6034 21.5078 16.3448 21.2518 16.1896L2.97013 3.6724V5.5862L16.3869 14.5862L0 9.41378L0.153629 11.1207L16.0285 16.1379L0.870555 16.1896C0.819346 16.1896 1.43386 17.7931 1.43386 17.7931Z" fill="#1F1F1F"/>
<path d="M28.8308 8.37931C28.8308 7.91379 28.4723 7.5 28.0114 7.5C27.5506 7.5 27.2433 7.86207 27.2433 8.37931C27.2433 8.84483 27.6018 9.2069 28.0114 9.2069C28.4723 9.25862 28.8308 8.84483 28.8308 8.37931Z" fill="#1F1F1F"/>
<path d="M19.2547 1.60345C21.4055 1.60345 23.505 2.12069 25.3998 3C25.7582 2.84483 26.1167 2.74138 26.5264 2.63793C26.8848 2.53448 27.2945 2.48276 27.7042 2.43103C25.2461 0.879311 22.3784 0 19.3059 0C16.5918 0 13.9801 0.724138 11.7269 1.96552L13.1096 3.05172C14.9531 2.06897 17.0527 1.60345 19.2547 1.60345Z" fill="#1F1F1F"/>
<path d="M34.5149 10.5517L33.4396 11.9483C34.1565 13.8103 34.5149 15.8276 34.5149 18C34.5149 27.0517 27.6529 34.3965 19.2546 34.3965C17.8208 34.3965 16.3869 34.1896 15.1067 33.7758L14.9019 35.3793C16.2845 35.7931 17.7696 36 19.2546 36C28.4723 36 36 27.931 36 18C36 15.3621 35.4367 12.8276 34.5149 10.5517Z" fill="#1F1F1F"/>
</svg>
