<svg width="38" height="38" viewBox="0 0 38 38" fill="none" xmlns="http://www.w3.org/2000/svg">
<path d="M22.9583 15.8334C21.6441 15.8334 20.5833 14.7726 20.5833 13.4584V5.54175C20.5833 4.22758 21.6441 3.16675 22.9583 3.16675C24.2725 3.16675 25.3333 4.22758 25.3333 5.54175V13.4584C25.3333 14.7726 24.2725 15.8334 22.9583 15.8334Z" stroke="#C9DB48" stroke-width="2" stroke-linecap="round" stroke-linejoin="round"/>
<path d="M32.4583 15.8333H30.0833V13.4583C30.0833 12.1441 31.1441 11.0833 32.4583 11.0833C33.7725 11.0833 34.8333 12.1441 34.8333 13.4583C34.8333 14.7724 33.7725 15.8333 32.4583 15.8333Z" stroke="#C9DB48" stroke-width="2" stroke-linecap="round" stroke-linejoin="round"/>
<path d="M15.0417 22.1667C16.3559 22.1667 17.4167 23.2276 17.4167 24.5417V32.4584C17.4167 33.7726 16.3559 34.8334 15.0417 34.8334C13.7275 34.8334 12.6667 33.7726 12.6667 32.4584V24.5417C12.6667 23.2276 13.7275 22.1667 15.0417 22.1667Z" stroke="#C9DB48" stroke-width="2" stroke-linecap="round" stroke-linejoin="round"/>
<path d="M5.54169 22.1667H7.91669V24.5417C7.91669 25.8559 6.85585 26.9167 5.54169 26.9167C4.22752 26.9167 3.16669 25.8559 3.16669 24.5417C3.16669 23.2276 4.22752 22.1667 5.54169 22.1667Z" stroke="#C9DB48" stroke-width="2" stroke-linecap="round" stroke-linejoin="round"/>
<path d="M22.1667 22.9583C22.1667 21.6441 23.2275 20.5833 24.5417 20.5833H32.4584C33.7725 20.5833 34.8334 21.6441 34.8334 22.9583C34.8334 24.2724 33.7725 25.3333 32.4584 25.3333H24.5417C23.2275 25.3333 22.1667 24.2724 22.1667 22.9583Z" stroke="#C9DB48" stroke-width="2" stroke-linecap="round" stroke-linejoin="round"/>
<path d="M24.5417 30.0833H22.1667V32.4583C22.1667 33.7724 23.2275 34.8332 24.5417 34.8332C25.8559 34.8332 26.9167 33.7724 26.9167 32.4583C26.9167 31.1441 25.8559 30.0833 24.5417 30.0833Z" stroke="#C9DB48" stroke-width="2" stroke-linecap="round" stroke-linejoin="round"/>
<path d="M15.8334 15.0417C15.8334 13.7276 14.7725 12.6667 13.4584 12.6667H5.54169C4.22752 12.6667 3.16669 13.7276 3.16669 15.0417C3.16669 16.3559 4.22752 17.4167 5.54169 17.4167H13.4584C14.7725 17.4167 15.8334 16.3559 15.8334 15.0417Z" stroke="#C9DB48" stroke-width="2" stroke-linecap="round" stroke-linejoin="round"/>
<path d="M13.4583 7.91675H15.8333V5.54175C15.8333 4.22758 14.7725 3.16675 13.4583 3.16675C12.1441 3.16675 11.0833 4.22758 11.0833 5.54175C11.0833 6.85591 12.1441 7.91675 13.4583 7.91675Z" stroke="#C9DB48" stroke-width="2" stroke-linecap="round" stroke-linejoin="round"/>
</svg>
