<svg width="72" height="72" viewBox="0 0 72 72" fill="none" xmlns="http://www.w3.org/2000/svg">
<path d="M9 18V40.5" stroke="white" stroke-width="3.2" stroke-linecap="round" stroke-linejoin="round"/>
<path d="M15.2437 60.7498C17.495 57.2968 20.5722 54.46 24.1966 52.4964C27.8209 50.5328 31.8779 49.5044 36 49.5044C40.1221 49.5044 44.1791 50.5328 47.8034 52.4964C51.4277 54.46 54.5049 57.2968 56.7562 60.7498" stroke="white" stroke-width="3.2" stroke-linecap="round" stroke-linejoin="round"/>
<path d="M63 18L36 27L9 18L36 9L63 18Z" stroke="white" stroke-width="3.2" stroke-linecap="round" stroke-linejoin="round"/>
<path d="M47.6156 23.1187C49.6796 25.3725 51.0432 28.1782 51.5403 31.1936C52.0374 34.209 51.6464 37.3039 50.4151 40.101C49.1838 42.8981 47.1653 45.2765 44.6058 46.9464C42.0462 48.6162 39.0561 49.5054 36 49.5054C32.9439 49.5054 29.9538 48.6162 27.3942 46.9464C24.8347 45.2765 22.8162 42.8981 21.5849 40.101C20.3536 37.3039 19.9627 34.209 20.4597 31.1936C20.9568 28.1782 22.3204 25.3725 24.3844 23.1187" stroke="white" stroke-width="3.2" stroke-linecap="round" stroke-linejoin="round"/>
</svg>
