<svg width="38" height="38" viewBox="0 0 38 38" fill="none" xmlns="http://www.w3.org/2000/svg">
<path d="M19 30.0834C25.1212 30.0834 30.0834 25.1212 30.0834 19.0001C30.0834 12.8789 25.1212 7.91675 19 7.91675C12.8789 7.91675 7.91669 12.8789 7.91669 19.0001C7.91669 25.1212 12.8789 30.0834 19 30.0834Z" stroke="#C9DB48" stroke-width="2" stroke-linecap="round" stroke-linejoin="round"/>
<path d="M19 14.25V19L21.375 21.375" stroke="#C9DB48" stroke-width="2" stroke-linecap="round" stroke-linejoin="round"/>
<path d="M26.1408 27.4708L25.5867 33.5349C25.5153 34.3245 25.1504 35.0585 24.5641 35.5921C23.9778 36.1256 23.2127 36.4198 22.42 36.4166H15.5642C14.7714 36.4198 14.0063 36.1256 13.42 35.5921C12.8337 35.0585 12.4688 34.3245 12.3975 33.5349L11.8433 27.4708M11.8592 10.5291L12.4133 4.46494C12.4844 3.67815 12.847 2.94635 13.43 2.41319C14.013 1.88003 14.7742 1.58402 15.5642 1.58328H22.4517C23.2444 1.58006 24.0095 1.87429 24.5958 2.40784C25.1821 2.94138 25.547 3.67543 25.6183 4.46494L26.1725 10.5291" stroke="#C9DB48" stroke-width="2" stroke-linecap="round" stroke-linejoin="round"/>
</svg>
